<svg xmlns="http://www.w3.org/2000/svg" viewBox="0 0 48 48"><linearGradient id="SJP6zYHmFK6IPNc9iHIX6a" x1="14.242" x2="30.172" y1="8.358" y2="38.695" gradientUnits="userSpaceOnUse"><stop offset="0" stop-color="#2aa4f4"/><stop offset="1" stop-color="#007ad9"/></linearGradient><path fill="url(#SJP6zYHmFK6IPNc9iHIX6a)" d="M48,26c0,6.63-5.37,12-12,12c-1.8,0-24.66,0-26.5,0C4.25,38,0,33.75,0,28.5	c0-4.54,3.18-8.34,7.45-9.28C9.15,12.21,15.46,7,23,7c5.51,0,10.36,2.78,13.24,7.01C42.76,14.13,48,19.45,48,26z"/><path d="M21,28.207V31.5c0,0.827-0.673,1.5-1.5,1.5h-3.293c-0.608,0-1.152-0.363-1.386-0.926	c-0.232-0.562-0.105-1.204,0.325-1.635l0.291-0.291C14.495,28.593,14,26.83,14,25c0-5.295,4.139-9.68,9.421-9.983	c0.411-0.024,0.81,0.126,1.105,0.406C24.827,15.708,25,16.107,25,16.521v1.002c0,0.781-0.619,1.437-1.409,1.492	C20.455,19.228,18,21.856,18,25c0,0.737,0.144,1.47,0.422,2.164l0.018-0.018c0.43-0.43,1.072-0.559,1.635-0.325S21,27.599,21,28.207	z M32.56,19.854l0.294-0.294c0.431-0.431,0.558-1.072,0.325-1.635C32.945,17.363,32.401,17,31.793,17H28.5	c-0.827,0-1.5,0.673-1.5,1.5v3.293c0,0.608,0.363,1.152,0.926,1.386c0.562,0.232,1.205,0.104,1.635-0.325l0.026-0.026	C29.859,23.518,30,24.253,30,25c0,3.144-2.455,5.772-5.591,5.985C23.619,31.041,23,31.696,23,32.478v1.002	c0,0.413,0.173,0.812,0.474,1.098c0.276,0.262,0.646,0.409,1.024,0.409c0.027,0,0.054-0.001,0.081-0.003	C29.861,34.68,34,30.295,34,25C34,23.173,33.505,21.41,32.56,19.854z" opacity=".05"/><path d="M20.5,28.207V31.5c0,0.552-0.448,1-1,1h-3.293c-0.405,0-0.769-0.242-0.924-0.617	s-0.07-0.803,0.217-1.09l0.574-0.574C15.043,28.663,14.5,26.868,14.5,25c0-5.03,3.932-9.196,8.95-9.484	c0.266-0.017,0.536,0.084,0.732,0.271c0.202,0.19,0.317,0.458,0.317,0.734v1.002c0,0.528-0.405,0.955-0.943,0.993	C20.16,18.746,17.5,21.595,17.5,25c0,1.045,0.266,2.078,0.771,3.021l0.521-0.521c0.286-0.286,0.713-0.373,1.09-0.217	C20.258,27.438,20.5,27.802,20.5,28.207z M31.923,19.784l0.577-0.577c0.287-0.287,0.372-0.715,0.217-1.09S32.198,17.5,31.793,17.5	H28.5c-0.552,0-1,0.448-1,1v3.293c0,0.405,0.242,0.769,0.617,0.924c0.376,0.155,0.804,0.069,1.09-0.217l0.532-0.532	C30.238,22.903,30.5,23.939,30.5,25c0,3.405-2.66,6.254-6.057,6.484c-0.538,0.038-0.943,0.465-0.943,0.993v1.002	c0,0.276,0.115,0.544,0.317,0.734c0.184,0.175,0.429,0.272,0.68,0.272c0.018,0,0.035-0.001,0.053-0.002	C29.568,34.196,33.5,30.03,33.5,25C33.5,23.135,32.956,21.341,31.923,19.784z" opacity=".07"/><path fill="#fff" d="M24,17.522c0,0.267-0.212,0.476-0.479,0.494C19.884,18.263,17,21.302,17,25	c0,1.418,0.444,2.725,1.172,3.828l0.975-0.975C19.461,27.539,20,27.762,20,28.207V31.5c0,0.276-0.224,0.5-0.5,0.5h-3.293	c-0.445,0-0.669-0.539-0.354-0.854l0.87-0.87C15.643,28.793,15,26.972,15,25c0-4.788,3.757-8.714,8.478-8.985	C23.762,15.999,24,16.237,24,16.521V17.522z M31.274,19.726l0.873-0.873C32.461,18.539,32.238,18,31.793,18H28.5	c-0.276,0-0.5,0.224-0.5,0.5v3.293c0,0.445,0.539,0.669,0.854,0.354l0.986-0.986C30.569,22.264,31,23.581,31,25	c0,3.698-2.884,6.737-6.521,6.984C24.212,32.002,24,32.211,24,32.478v1.001c0,0.284,0.238,0.522,0.522,0.506	C29.243,33.714,33,29.788,33,25C33,23.028,32.355,21.209,31.274,19.726z"/></svg>