<?xml version="1.0" encoding="UTF-8" ?>
<!DOCTYPE svg PUBLIC "-//W3C//DTD SVG 1.1//EN" "http://www.w3.org/Graphics/SVG/1.1/DTD/svg11.dtd">
<svg width="2334pt" height="551pt" viewBox="0 0 2334 551" version="1.1" xmlns="http://www.w3.org/2000/svg">
<g id="#e23e29ff">
<path fill="#e23e29" opacity="1.00" d=" M 197.26 12.04 C 248.65 -1.08 303.24 -1.14 354.63 12.05 C 352.04 32.36 341.55 51.65 325.43 64.36 C 309.80 76.99 289.18 83.20 269.18 81.36 C 249.92 79.88 231.39 70.87 218.25 56.73 C 206.66 44.58 199.48 28.62 197.26 12.04 Z" />
<path fill="#e23e29" opacity="1.00" d=" M 50.28 120.16 C 75.45 84.98 108.26 55.48 145.39 33.37 C 156.03 47.19 162.29 64.50 162.02 82.00 C 162.42 103.02 153.67 123.99 138.59 138.61 C 126.19 150.96 109.54 158.92 92.14 160.83 C 71.65 163.31 50.31 157.33 34.10 144.53 C 39.46 136.39 44.33 127.91 50.28 120.16 Z" />
<path fill="#e23e29" opacity="1.00" d=" M 390.54 90.84 C 388.08 70.45 394.18 49.30 406.79 33.12 C 452.42 60.13 491.11 98.67 517.97 144.40 C 504.31 154.90 487.27 161.09 469.98 161.02 C 449.87 161.49 429.75 153.62 415.12 139.86 C 401.45 127.13 392.46 109.44 390.54 90.84 Z" />
<path fill="#e23e29" opacity="1.00" d=" M 269.37 103.47 C 277.96 101.15 287.64 103.66 293.83 110.09 C 303.45 119.56 303.08 136.87 292.92 145.81 C 283.73 154.68 267.61 154.55 258.63 145.46 C 251.90 139.15 249.41 128.99 252.11 120.22 C 254.45 112.14 261.25 105.60 269.37 103.47 Z" />
<path fill="#e23e29" opacity="1.00" d=" M 166.26 146.20 C 178.06 143.50 190.89 150.70 194.85 162.10 C 198.51 172.07 195.06 184.14 186.48 190.46 C 177.20 197.80 162.66 197.04 154.22 188.72 C 147.66 182.66 144.98 172.93 147.27 164.33 C 149.40 155.29 157.20 148.04 166.26 146.20 Z" />
<path fill="#e23e29" opacity="1.00" d=" M 374.30 146.27 C 386.07 142.84 399.58 149.59 403.94 161.02 C 406.64 167.95 406.20 176.08 402.53 182.58 C 398.79 189.33 391.71 194.17 384.03 195.04 C 376.69 196.05 368.85 193.64 363.57 188.39 C 357.78 182.99 354.99 174.70 356.13 166.89 C 357.31 157.20 364.82 148.64 374.30 146.27 Z" />
<path fill="#e23e29" opacity="1.00" d=" M 12.78 353.79 C -0.32 302.43 -0.31 247.90 12.78 196.54 C 33.17 199.05 52.54 209.64 65.24 225.85 C 76.51 239.91 82.84 257.96 82.35 276.01 C 82.51 298.18 72.31 320.06 55.65 334.62 C 43.73 345.15 28.56 351.86 12.78 353.79 Z" />
<path fill="#e23e29" opacity="1.00" d=" M 479.82 237.77 C 491.60 215.26 514.95 199.50 540.14 196.55 C 550.98 239.63 553.08 284.96 545.38 328.75 C 544.16 337.20 541.90 345.44 540.14 353.78 C 524.63 351.93 509.70 345.40 497.92 335.14 C 484.41 323.60 474.98 307.33 471.80 289.84 C 468.55 272.25 471.21 253.51 479.82 237.77 Z" />
<path fill="#e23e29" opacity="1.00" d=" M 123.44 250.73 C 135.57 248.10 148.78 255.87 152.13 267.86 C 155.23 277.66 151.57 289.17 143.19 295.20 C 133.41 302.71 118.08 301.36 109.92 292.05 C 103.74 285.50 101.77 275.44 104.75 266.98 C 107.50 258.74 114.89 252.30 123.44 250.73 Z" />
<path fill="#e23e29" opacity="1.00" d=" M 419.44 250.78 C 425.50 249.64 432.03 250.50 437.34 253.73 C 444.26 257.70 448.88 265.26 449.43 273.20 C 450.19 281.64 446.31 290.35 439.38 295.28 C 429.95 302.39 415.36 301.48 407.11 292.94 C 400.54 286.64 398.08 276.57 400.78 267.92 C 403.19 259.32 410.74 252.58 419.44 250.78 Z" />
<path fill="#e23e29" opacity="1.00" d=" M 165.53 355.62 C 174.21 353.52 183.88 356.45 189.79 363.18 C 197.77 371.67 198.25 385.86 191.08 395.00 C 186.22 401.49 177.97 405.30 169.87 404.70 C 160.81 404.44 152.24 398.56 148.62 390.28 C 145.48 383.59 145.66 375.52 148.84 368.89 C 152.05 362.25 158.34 357.26 165.53 355.62 Z" />
<path fill="#e23e29" opacity="1.00" d=" M 376.46 355.70 C 383.18 354.50 390.45 356.01 395.89 360.21 C 401.86 364.58 405.60 371.81 405.83 379.19 C 406.18 387.16 402.45 395.27 396.04 400.06 C 391.48 403.58 385.62 405.30 379.88 405.02 C 370.47 404.86 361.57 398.63 358.00 389.97 C 355.62 384.36 355.39 377.87 357.38 372.11 C 360.09 363.70 367.73 357.12 376.46 355.70 Z" />
<path fill="#e23e29" opacity="1.00" d=" M 34.00 405.79 C 48.49 394.75 66.73 388.45 85.00 389.24 C 105.01 389.49 124.72 398.01 138.78 412.23 C 151.75 424.89 159.87 442.28 161.58 460.30 C 163.75 480.42 157.67 501.20 145.22 517.12 C 113.37 498.04 84.57 473.70 61.25 444.76 C 51.05 432.59 42.26 419.33 34.00 405.79 Z" />
<path fill="#e23e29" opacity="1.00" d=" M 448.97 392.04 C 472.58 385.69 498.93 391.02 518.15 406.15 C 493.81 447.31 460.12 482.93 420.08 509.12 C 415.73 511.91 411.35 514.66 406.96 517.41 C 396.10 503.45 389.95 485.78 390.31 468.06 C 390.13 451.22 395.94 434.51 405.94 421.03 C 416.53 406.94 431.88 396.45 448.97 392.04 Z" />
<path fill="#e23e29" opacity="1.00" d=" M 270.53 399.69 C 278.02 398.02 286.26 400.00 292.09 405.03 C 298.12 410.03 301.40 418.05 300.78 425.85 C 300.25 434.37 294.99 442.48 287.30 446.25 C 279.70 450.18 270.01 449.84 262.79 445.21 C 252.91 439.44 248.47 426.28 252.50 415.62 C 255.21 407.64 262.31 401.47 270.53 399.69 Z" />
<path fill="#e23e29" opacity="1.00" d=" M 220.56 492.56 C 235.25 477.80 256.16 469.43 276.97 469.98 C 294.30 469.96 311.53 476.14 325.08 486.93 C 341.37 499.70 352.15 519.08 354.59 539.63 C 332.37 544.88 309.70 548.67 286.83 549.16 C 256.71 550.35 226.49 546.88 197.27 539.52 C 199.57 521.88 207.63 504.86 220.56 492.56 Z" />
</g>
<g id="#9c9d9cff">
<path fill="#9c9d9c" opacity="1.00" d=" M 782.57 166.66 C 808.69 147.15 842.96 141.65 874.75 145.71 C 898.23 148.11 920.51 159.13 937.22 175.71 C 939.45 177.90 941.84 179.93 944.02 182.18 C 931.58 194.43 919.06 206.59 906.46 218.68 C 896.93 208.06 885.46 198.13 871.20 194.86 C 856.10 191.46 839.67 192.85 825.77 199.87 C 810.03 207.84 798.59 223.10 794.03 239.99 C 789.36 256.56 789.55 273.94 789.66 291.00 C 790.22 305.98 791.71 321.34 797.92 335.17 C 805.45 351.61 820.21 364.88 837.92 369.23 C 852.39 372.76 868.34 372.32 881.92 365.80 C 891.57 361.11 899.27 353.47 906.64 345.84 C 918.99 357.95 931.70 369.69 944.02 381.83 C 936.17 389.44 928.28 397.14 918.95 402.94 C 897.40 417.40 870.57 421.27 845.12 419.71 C 823.95 418.32 802.88 411.91 785.41 399.69 C 768.93 388.29 756.17 371.90 748.28 353.54 C 737.88 329.85 734.82 303.63 735.07 277.97 C 735.57 254.59 739.07 230.90 748.75 209.44 C 756.23 192.67 767.80 177.64 782.57 166.66 Z" />
<path fill="#9c9d9c" opacity="1.00" d=" M 1033.07 155.14 C 1047.72 148.20 1064.01 145.67 1080.07 144.79 C 1103.87 143.82 1128.32 144.89 1150.99 152.94 C 1161.82 156.87 1172.14 162.60 1180.58 170.53 C 1191.76 180.76 1198.99 194.80 1202.32 209.48 C 1205.11 220.77 1205.42 232.47 1205.33 244.05 C 1205.33 301.70 1205.33 359.35 1205.33 417.00 C 1187.55 417.00 1169.78 417.00 1152.00 417.00 C 1151.99 408.96 1152.02 400.92 1151.98 392.89 C 1144.32 400.15 1136.05 406.99 1126.41 411.48 C 1115.72 416.61 1103.90 418.91 1092.12 419.64 C 1074.61 420.65 1056.69 419.84 1039.84 414.58 C 1027.36 410.70 1015.78 403.72 1006.85 394.14 C 996.15 382.28 989.99 366.83 987.91 351.11 C 986.13 337.06 986.92 322.46 991.87 309.10 C 996.82 295.43 1006.39 283.52 1018.63 275.68 C 1032.61 266.54 1049.18 262.20 1065.68 260.75 C 1078.08 259.73 1090.53 260.05 1102.96 260.00 C 1118.97 260.00 1134.99 260.00 1151.00 260.00 C 1150.71 245.00 1152.48 229.09 1145.85 215.10 C 1141.97 206.37 1134.24 199.81 1125.46 196.32 C 1113.24 191.39 1099.81 190.69 1086.79 191.05 C 1074.94 191.53 1062.68 193.23 1052.36 199.46 C 1044.85 203.91 1038.69 210.29 1033.40 217.16 C 1021.44 205.91 1009.49 194.66 997.52 183.43 C 1007.22 171.67 1019.20 161.60 1033.07 155.14 M 1067.82 300.54 C 1059.27 302.81 1050.98 307.47 1045.98 314.95 C 1039.54 324.47 1038.70 336.81 1041.17 347.77 C 1043.31 357.43 1050.47 365.44 1059.46 369.37 C 1072.49 375.06 1087.10 375.12 1101.05 374.33 C 1113.77 373.77 1126.87 370.26 1136.55 361.62 C 1145.01 355.06 1148.61 344.31 1150.00 334.07 C 1151.41 322.10 1150.91 310.03 1151.00 298.00 C 1134.68 298.00 1118.36 298.00 1102.04 298.00 C 1090.61 298.04 1078.96 297.51 1067.82 300.54 Z" />
<path fill="#9c9d9c" opacity="1.00" d=" M 1347.00 174.48 C 1362.45 157.63 1384.41 147.40 1407.04 145.10 C 1427.54 143.13 1448.96 146.09 1467.20 156.01 C 1484.91 165.51 1498.68 181.89 1505.34 200.82 C 1512.86 221.33 1511.98 243.52 1512.00 265.01 C 1512.00 315.67 1512.00 366.34 1512.00 417.00 C 1493.89 417.00 1475.78 417.00 1457.67 417.00 C 1457.67 363.65 1457.65 310.30 1457.68 256.95 C 1457.39 247.24 1457.11 237.36 1453.96 228.07 C 1450.46 216.44 1442.79 205.88 1432.05 199.98 C 1416.44 191.45 1396.98 191.05 1380.51 197.32 C 1366.63 202.61 1355.93 214.73 1351.63 228.85 C 1347.86 240.14 1347.91 252.19 1348.00 263.96 C 1348.00 314.97 1348.00 365.99 1348.00 417.00 C 1329.89 417.00 1311.78 417.00 1293.67 417.00 C 1293.67 327.22 1293.66 237.45 1293.67 147.67 C 1311.44 147.66 1329.22 147.67 1347.00 147.67 C 1347.00 156.60 1346.99 165.54 1347.00 174.48 Z" />
<path fill="#9c9d9c" opacity="1.00" d=" M 1883.13 153.40 C 1904.94 144.54 1928.97 144.05 1952.15 144.69 C 1975.13 146.06 1998.99 150.36 2018.27 163.71 C 2033.98 174.27 2044.63 191.41 2048.56 209.80 C 2051.49 221.97 2051.58 234.57 2051.67 247.01 C 2051.67 303.67 2051.66 360.33 2051.67 416.99 C 2033.78 417.01 2015.89 417.00 1998.00 417.00 C 1998.00 408.95 1997.99 400.90 1998.01 392.86 C 1990.87 399.93 1982.93 406.35 1973.90 410.83 C 1961.87 416.94 1948.31 419.28 1934.94 419.83 C 1916.37 420.53 1897.25 419.31 1879.82 412.35 C 1863.59 405.97 1849.57 393.69 1842.04 377.85 C 1832.74 358.53 1830.76 335.78 1836.15 315.07 C 1841.00 296.00 1854.90 279.87 1872.45 271.25 C 1890.79 261.95 1911.76 259.87 1932.04 260.00 C 1953.69 260.00 1975.34 260.00 1997.00 260.00 C 1996.67 248.13 1998.04 236.06 1995.29 224.38 C 1993.56 217.23 1990.36 210.18 1984.94 205.07 C 1978.28 198.15 1968.92 194.58 1959.65 192.80 C 1948.01 190.57 1936.04 190.57 1924.28 191.67 C 1913.16 192.74 1901.93 196.07 1893.11 203.15 C 1887.92 207.07 1883.61 211.95 1879.62 217.04 C 1867.41 206.06 1855.77 194.43 1843.54 183.48 C 1854.40 170.83 1867.47 159.60 1883.13 153.40 M 1914.57 300.37 C 1906.00 302.62 1897.68 307.09 1892.47 314.43 C 1885.86 323.93 1884.71 336.40 1887.26 347.48 C 1888.91 355.01 1893.55 361.74 1899.88 366.12 C 1909.28 372.50 1920.91 374.14 1932.02 374.65 C 1941.65 374.76 1951.41 374.57 1960.87 372.50 C 1970.76 370.36 1979.94 365.11 1986.80 357.66 C 1991.51 352.42 1993.92 345.57 1995.36 338.78 C 1998.08 325.36 1996.64 311.59 1997.00 298.00 C 1979.01 298.00 1961.03 298.00 1943.05 298.00 C 1933.52 297.96 1923.84 297.93 1914.57 300.37 Z" />
<path fill="#9c9d9c" opacity="1.00" d=" M 2178.44 150.58 C 2200.77 143.30 2224.69 143.65 2247.81 145.99 C 2264.33 148.04 2280.84 151.79 2295.87 159.15 C 2304.67 163.12 2312.51 168.81 2320.06 174.76 C 2308.75 186.48 2297.13 197.88 2285.86 209.64 C 2265.63 193.09 2238.29 189.06 2212.91 190.11 C 2201.63 190.89 2189.82 193.65 2181.06 201.21 C 2168.94 211.40 2167.00 232.24 2178.11 243.83 C 2185.24 250.79 2195.39 253.21 2204.98 254.44 C 2218.65 255.80 2232.34 256.88 2246.03 258.10 C 2263.22 259.47 2280.77 262.43 2296.06 270.85 C 2308.38 277.36 2318.56 287.97 2324.08 300.82 C 2330.31 315.28 2331.40 331.50 2329.57 347.00 C 2327.28 364.89 2318.36 381.93 2304.59 393.64 C 2290.73 405.54 2273.35 412.64 2255.61 416.37 C 2235.81 420.55 2215.39 420.62 2195.28 419.27 C 2175.83 417.78 2156.34 413.80 2138.73 405.18 C 2126.23 399.16 2114.94 390.83 2105.03 381.16 C 2116.93 369.20 2128.92 357.34 2140.78 345.33 C 2147.66 351.48 2154.74 357.62 2163.16 361.60 C 2180.85 370.97 2201.23 373.67 2221.00 373.62 C 2231.36 373.20 2241.85 372.06 2251.63 368.39 C 2260.64 365.20 2269.30 359.44 2273.75 350.73 C 2279.93 338.24 2277.63 320.54 2265.51 312.42 C 2257.80 307.12 2248.26 305.68 2239.15 304.82 C 2226.37 303.69 2213.59 302.60 2200.82 301.51 C 2181.91 299.94 2162.42 296.26 2146.37 285.57 C 2133.16 276.95 2123.89 262.88 2120.69 247.48 C 2116.04 225.91 2118.54 201.90 2131.35 183.46 C 2142.41 167.24 2159.87 156.26 2178.44 150.58 Z" />
<path fill="#9c9d9c" opacity="1.00" d=" M 1561.36 147.65 C 1580.63 147.69 1599.90 147.66 1619.18 147.66 C 1640.21 210.65 1661.55 273.54 1682.55 336.54 C 1703.52 273.57 1724.53 210.62 1745.50 147.65 C 1764.76 147.68 1784.02 147.67 1803.29 147.66 C 1770.38 237.44 1737.41 327.21 1704.49 416.99 C 1689.72 417.01 1674.95 416.99 1660.18 417.00 C 1627.27 327.21 1594.33 237.42 1561.36 147.65 Z" />
</g>
</svg>
