<?xml version="1.0" encoding="utf-8"?>
<svg width="289px" height="289px" viewBox="0 0 289 289" version="1.1" xmlns:xlink="http://www.w3.org/1999/xlink" xmlns="http://www.w3.org/2000/svg">
  <desc>Created with Lunacy</desc>
  <defs>
    <linearGradient x1="0.29670835" y1="0.043806434" x2="0.6285834" y2="1.0224193" id="gradient_1">
      <stop offset="0" stop-color="#2AA4F4" />
      <stop offset="1" stop-color="#007AD9" />
    </linearGradient>
    <path d="M0 0L289 0L289 289L0 289L0 0Z" id="path_1" />
    <clipPath id="mask_1">
      <use xlink:href="#path_1" />
    </clipPath>
  </defs>
  <g id="cloud">
    <path d="M0 0L289 0L289 289L0 289L0 0Z" id="Background" fill="none" stroke="none" />
    <g clip-path="url(#mask_1)">
      <path d="M289 114.396C289 154.314 256.668 186.646 216.75 186.646C205.913 186.646 68.2763 186.646 57.1979 186.646C25.5885 186.646 0 161.057 0 129.448C0 102.113 19.1463 79.2342 44.8552 73.5746C55.0906 31.3685 93.0821 0 138.479 0C171.654 0 200.855 16.7379 218.195 42.206C257.451 42.9285 289 74.9594 289 114.396L289 114.396Z" transform="translate(0 42.14583)" id="Shape" fill="url(#gradient_1)" stroke="none" />
      <g id="Group" transform="translate(70.291664 70.01372)">
        <path d="M51.9545 122.357L51.9545 97.9157C51.9545 93.4031 49.2677 89.3654 45.0891 87.6287C40.9105 85.8919 36.1455 86.8494 32.954 90.0409L32.8204 90.1745C30.7571 85.0235 29.6883 79.5832 29.6883 74.1131C29.6883 50.7781 47.9095 31.2729 71.1851 29.692C77.0486 29.2838 81.6428 24.4149 81.6428 18.6183L81.6428 11.1813C81.6428 8.1086 80.3588 5.14719 78.1247 3.0319C75.9352 0.953722 72.9738 -0.159593 69.9234 0.0185379C30.72 2.26742 0 34.8132 0 74.1131C0 87.6955 3.67393 100.781 10.6655 112.322L8.5057 114.482C5.31422 117.681 4.37161 122.446 6.09353 126.617C7.83029 130.795 11.8679 133.49 16.3805 133.49L40.8214 133.49C46.9595 133.49 51.9545 128.495 51.9545 122.357ZM139.936 33.7371L137.754 35.9192C144.768 47.4679 148.441 60.553 148.441 74.1131C148.441 113.413 117.722 145.959 78.5181 148.215C78.3177 148.23 78.1173 148.237 77.9169 148.237C75.1114 148.237 72.3652 147.146 70.3167 145.202C68.0827 143.079 66.7987 140.118 66.7987 137.052L66.7987 129.615C66.7987 123.811 71.3929 118.95 77.2564 118.534C100.532 116.953 118.753 97.4481 118.753 74.1131C118.753 68.5689 117.707 63.1136 115.688 57.9924L115.495 58.1854C112.303 61.3694 107.531 62.3195 103.36 60.5975C99.1812 58.8608 96.487 54.8232 96.487 50.3105L96.487 25.8697C96.487 19.7316 101.482 14.7366 107.62 14.7366L132.061 14.7366C136.574 14.7366 140.611 17.4308 142.348 21.602C144.077 25.7806 143.135 30.5381 139.936 33.7371Z" id="Shape" fill="#000000" fill-opacity="0.05" fill-rule="evenodd" stroke="none" />
        <path d="M44.5324 118.648L44.5324 94.2073C44.5324 91.2013 42.7363 88.4997 39.9456 87.3493C37.1475 86.1914 33.9782 86.8372 31.8555 88.9599L27.9886 92.8268C24.2405 85.8278 22.2662 78.1608 22.2662 70.4047C22.2662 45.1325 42.0089 23.987 67.2143 22.28C71.2074 21.9979 74.2133 18.8287 74.2133 14.9098L74.2133 7.47291C74.2133 5.42441 73.3598 3.4353 71.8605 2.02511C70.4058 0.637176 68.4018 -0.112452 66.4276 0.0137247C29.1836 2.15128 0 33.0716 0 70.4047C0 84.2691 4.03019 97.5917 11.6824 109.14L7.42208 113.401C5.29195 115.531 4.66107 118.708 5.81149 121.491C6.96191 124.274 9.66355 126.07 12.6695 126.07L37.1104 126.07C41.2073 126.07 44.5324 122.745 44.5324 118.648ZM133.597 27.4086L129.315 31.6912C136.982 43.2473 141.019 56.5625 141.019 70.4047C141.019 107.738 111.836 138.658 74.5918 140.788C74.4582 140.796 74.3321 140.803 74.1985 140.803C72.3355 140.803 70.5171 140.083 69.1515 138.784C67.6522 137.374 66.7987 135.385 66.7987 133.336L66.7987 125.9C66.7987 121.981 69.8046 118.811 73.7977 118.529C99.0105 116.822 118.753 95.6769 118.753 70.4047C118.753 62.5299 116.809 54.8406 113.105 47.901L109.156 51.8495C107.034 53.9722 103.857 54.6105 101.066 53.4601C98.2831 52.3097 96.487 49.6081 96.487 46.6021L96.487 22.1612C96.487 18.0642 99.8121 14.7392 103.909 14.7392L128.35 14.7392C131.356 14.7392 134.057 16.5353 135.208 19.3186C136.358 22.1019 135.727 25.2785 133.597 27.4086Z" transform="translate(3.7110443 3.7084198)" id="Shape" fill="#000000" fill-opacity="0.07" fill-rule="evenodd" stroke="none" />
        <path d="M63.2435 14.8572C65.2252 14.7236 66.7987 13.1724 66.7987 11.1907L66.7987 3.76124C66.7987 1.65336 65.0322 -0.113089 62.9243 0.00566259C27.8847 2.01704 0 31.1561 0 66.693C0 81.3293 4.77239 94.8449 12.7882 105.852L6.33103 112.309C3.99308 114.647 5.65563 118.648 8.95845 118.648L33.3993 118.648C35.4478 118.648 37.1104 116.985 37.1104 114.936L37.1104 90.4956C37.1104 87.1928 33.1099 85.5376 30.7793 87.8682L23.5428 95.1047C18.1395 86.9181 14.8441 77.2175 14.8441 66.693C14.8441 39.2462 36.2494 16.6905 63.2435 14.8572ZM127.266 21.0695L120.787 27.549C128.81 38.5559 133.597 52.0567 133.597 66.693C133.597 102.23 105.713 131.369 70.673 133.38C68.5651 133.499 66.7987 131.733 66.7987 129.625L66.7987 122.195C66.7987 120.214 68.3721 118.662 70.3538 118.529C97.3479 116.696 118.753 94.1398 118.753 66.693C118.753 56.1611 115.554 46.3862 110.144 38.1996L102.825 45.5178C100.487 47.8558 96.4869 46.1932 96.4869 42.8904L96.4869 18.4495C96.4869 16.401 98.1495 14.7385 100.198 14.7385L124.639 14.7385C127.942 14.7385 129.597 18.739 127.266 21.0695Z" transform="translate(7.4220734 7.4201508)" id="Shape" fill="#FFFFFF" fill-rule="evenodd" stroke="none" />
      </g>
      <g id="Group-2" transform="translate(115 121)">
        <path d="M30.1442 17.9414L17.9414 30.1442L0.754888 12.9576C-0.25163 11.9511 -0.25163 10.3207 0.754888 9.31414L9.31414 0.754889C10.3207 -0.25163 11.9511 -0.25163 12.9576 0.754889L30.1442 17.9414L30.1442 17.9414Z" transform="translate(0 12.287475)" id="Shape" fill="#A6D2FF" stroke="none" />
        <path d="M9.31414 46.0533L0.754889 37.4941C-0.25163 36.4876 -0.25163 34.8571 0.754889 33.8506L33.848 0.754888C34.8545 -0.25163 36.485 -0.25163 37.4915 0.754888L46.0508 9.31414C47.0573 10.3207 47.0573 11.9511 46.0508 12.9576L12.9564 46.0533C11.9511 47.0586 10.3194 47.0586 9.31414 46.0533L9.31414 46.0533Z" transform="translate(12.2502365 0)" id="Shape-2" fill="#E4F0FF" stroke="none" />
      </g>
      <g id="#e23e29ff" transform="translate(201.00003 177.99387)">
        <path d="M0 1.5467C8.06032 -0.511122 16.6225 -0.520532 24.6829 1.54827C24.2766 4.73382 22.6313 7.75938 20.103 9.7529C17.6515 11.7339 14.4173 12.7079 11.2804 12.4193C8.25951 12.1872 5.35316 10.774 3.2922 8.55616C1.47435 6.65048 0.348198 4.14721 0 1.5467L0 1.5467Z" transform="translate(30.475403 0)" id="Shape" fill="#E23E29" stroke="none" />
        <path d="M2.53778 13.6127C6.4856 8.09484 11.6317 3.46787 17.4554 0C19.1243 2.16762 20.1061 4.88263 20.0638 7.62744C20.1265 10.9243 18.7541 14.2134 16.3889 16.5065C14.444 18.4436 11.8325 19.6921 9.10337 19.9916C5.88958 20.3806 2.54248 19.4427 0 17.435C0.840697 16.1583 1.60454 14.8283 2.53778 13.6127L2.53778 13.6127Z" transform="translate(4.884384 4.8922424)" id="Shape" fill="#E23E29" stroke="none" />
        <path d="M0.0841432 9.05317C-0.301703 5.85508 0.655062 2.53778 2.6329 0C9.78981 4.23642 15.8582 10.2813 20.0711 17.4539C17.9286 19.1008 15.2559 20.0716 12.544 20.0607C9.38985 20.1344 6.23409 18.9 3.93943 16.7418C1.79534 14.7451 0.385286 11.9705 0.0841432 9.05317L0.0841432 9.05317Z" transform="translate(60.706543 4.852997)" id="Shape" fill="#E23E29" stroke="none" />
        <path d="M2.87512 0.133136C4.22243 -0.230747 5.74071 0.162937 6.71159 1.17146C8.22045 2.65679 8.16241 5.37179 6.56886 6.774C5.12744 8.16522 2.59907 8.14483 1.19059 6.7191C0.135015 5.7294 -0.255531 4.13585 0.167954 2.76031C0.534974 1.49299 1.60153 0.467218 2.87512 0.133136L2.87512 0.133136Z" transform="translate(38.91046 15.754059)" id="Shape" fill="#E23E29" stroke="none" />
        <path d="M3.1048 0.089035C4.95559 -0.33445 6.96793 0.794844 7.58904 2.58289C8.1631 4.14665 7.62198 6.03979 6.27624 7.03106C4.8207 8.18231 2.54016 8.0631 1.21638 6.75814C0.187466 5.80765 -0.232883 4.28154 0.126296 2.93266C0.460377 1.51477 1.68378 0.377632 3.1048 0.089035L3.1048 0.089035Z" transform="translate(22.508377 22.500153)" id="Shape" fill="#E23E29" stroke="none" />
        <path d="M2.88925 0.140385C4.73533 -0.397599 6.85432 0.661113 7.53817 2.45387C7.96166 3.54081 7.89264 4.81597 7.31702 5.83547C6.73041 6.89418 5.61994 7.65332 4.41536 7.78977C3.26411 7.94819 2.03444 7.57019 1.20629 6.74675C0.298155 5.89978 -0.139447 4.59952 0.0393599 3.37455C0.224437 1.85471 1.40235 0.51211 2.88925 0.140385L2.88925 0.140385Z" transform="translate(55.354248 22.459808)" id="Shape" fill="#E23E29" stroke="none" />
        <path d="M1.54043 24.6641C-0.51426 16.6084 -0.512692 8.05562 1.54043 0C4.73853 0.393685 7.77664 2.05469 9.76859 4.59716C11.5363 6.80242 12.5291 9.63349 12.4522 12.4646C12.4773 15.9418 10.8775 19.3736 8.26443 21.6573C6.39482 23.3089 4.01546 24.3613 1.54043 24.6641L1.54043 24.6641Z" transform="translate(0 30.484833)" id="Shape" fill="#E23E29" stroke="none" />
        <path d="M1.46802 6.46521C3.31566 2.93459 6.97801 0.462696 10.929 0C12.6292 6.75694 12.9585 13.8668 11.7508 20.7351C11.5595 22.0604 11.205 23.3528 10.929 24.6609C8.49628 24.3708 6.15457 23.3466 4.30693 21.7373C2.18794 19.9273 0.708884 17.3754 0.210111 14.6322C-0.299638 11.8733 0.117572 8.93396 1.46802 6.46521L1.46802 6.46521Z" transform="translate(73.3259 30.48642)" id="Shape" fill="#E23E29" stroke="none" />
        <path d="M3.14577 0.0803165C5.04832 -0.332189 7.12025 0.886509 7.64569 2.7671C8.13191 4.3042 7.55785 6.10951 6.24348 7.05529C4.70953 8.23321 2.30508 8.02147 1.02521 6.56122C0.0559023 5.53388 -0.253085 3.956 0.214317 2.62908C0.645644 1.33666 1.80474 0.326567 3.14577 0.0803165L3.14577 0.0803165Z" transform="translate(15.751282 38.904022)" id="Shape" fill="#E23E29" stroke="none" />
        <path d="M3.09602 0.0751468C4.04651 -0.103658 5.07072 0.03123 5.90358 0.537843C6.98896 1.16053 7.71359 2.34628 7.79985 3.59164C7.91905 4.91543 7.31049 6.28156 6.22354 7.05481C4.74448 8.16999 2.45609 8.02726 1.1621 6.68779C0.131626 5.69966 -0.25422 4.12022 0.169268 2.7635C0.547268 1.41462 1.73146 0.357471 3.09602 0.0751468L3.09602 0.0751468Z" transform="translate(62.22751 38.917053)" id="Shape" fill="#E23E29" stroke="none" />
        <path d="M3.00712 0.104959C4.36854 -0.224417 5.88525 0.235144 6.81221 1.29071C8.06384 2.62234 8.13913 4.84797 7.01454 6.28154C6.25227 7.29947 4.95828 7.89705 3.68783 7.80295C2.2668 7.76217 0.92263 6.83991 0.354845 5.54123C-0.137652 4.49193 -0.109419 3.22619 0.389351 2.1863C0.892829 1.14485 1.87939 0.362189 3.00712 0.104959L3.00712 0.104959Z" transform="translate(22.491592 55.331085)" id="Shape" fill="#E23E29" stroke="none" />
        <path d="M3.20347 0.0625411C4.25748 -0.125676 5.39776 0.111163 6.251 0.769912C7.18737 1.45533 7.77398 2.58932 7.81005 3.74685C7.86495 4.99691 7.27991 6.26893 6.27453 7.02022C5.55931 7.57231 4.64018 7.84209 3.73989 7.79817C2.26396 7.77308 0.868026 6.79593 0.308083 5.43764C-0.0652123 4.55774 -0.101284 3.53981 0.210839 2.63638C0.635892 1.31731 1.8342 0.285259 3.20347 0.0625411L3.20347 0.0625411Z" transform="translate(55.378906 55.386017)" id="Shape" fill="#E23E29" stroke="none" />
        <path d="M0 2.60623C2.27271 0.874646 5.13359 -0.113485 7.99917 0.0104204C11.1377 0.049632 14.2291 1.38597 16.4344 3.61632C18.4687 5.602 19.7423 8.32956 20.0105 11.1559C20.3508 14.3117 19.3972 17.5709 17.4445 20.0679C12.4489 17.0753 7.93173 13.2577 4.27407 8.71854C2.67423 6.80971 1.29555 4.72993 0 2.60623L0 2.60623Z" transform="translate(4.868698 60.69876)" id="Shape" fill="#E23E29" stroke="none" />
        <path d="M9.20297 0.412234C12.9061 -0.583741 17.039 0.252247 20.0536 2.62533C16.236 9.08112 10.9518 14.668 4.67167 18.7758C3.98939 19.2134 3.3024 19.6447 2.61384 20.076C0.910489 17.8865 -0.0541171 15.115 0.00234542 12.3357C-0.0258858 9.69439 0.885393 7.07349 2.45386 4.9592C4.11486 2.74924 6.52246 1.10393 9.20297 0.412234L9.20297 0.412234Z" transform="translate(60.75232 60.736084)" id="Shape" fill="#E23E29" stroke="none" />
        <path d="M3.06035 0.091045C4.23513 -0.17089 5.52755 0.139667 6.44197 0.928601C7.38775 1.71283 7.90221 2.97073 7.80497 4.19413C7.72184 5.53046 6.89682 6.80248 5.69067 7.39379C4.49864 8.01019 2.97879 7.95686 1.84636 7.23066C0.296713 6.32567 -0.399687 4.26157 0.232405 2.5896C0.657461 1.33797 1.77107 0.37023 3.06035 0.091045L3.06035 0.091045Z" transform="translate(38.907272 62.25717)" id="Shape" fill="#E23E29" stroke="none" />
        <path d="M3.65295 3.54559C5.95702 1.23054 9.23667 -0.0822669 12.5006 0.00400158C15.2188 0.000861584 17.9212 0.970177 20.0465 2.66255C22.6015 4.66548 24.2923 7.70517 24.675 10.9284C21.1899 11.7518 17.6342 12.3462 14.0471 12.4231C9.32293 12.6097 4.58304 12.0655 0 10.9111C0.360747 8.14433 1.62493 5.4748 3.65295 3.54559L3.65295 3.54559Z" transform="translate(30.47702 73.368866)" id="Shape" fill="#E23E29" stroke="none" />
      </g>
    </g>
  </g>
</svg>