<?xml version="1.0" encoding="utf-8"?>
<svg width="512px" height="512px" viewBox="0 0 512 512" version="1.1" xmlns:xlink="http://www.w3.org/1999/xlink" xmlns="http://www.w3.org/2000/svg">
  <desc>Created with Lunacy</desc>
  <defs>
    <linearGradient x1="0.110538125" y1="0.8894589" x2="0.8954412" y2="0.10458252" id="gradient_1">
      <stop offset="0" stop-color="#4191FD" />
      <stop offset="1" stop-color="#55ACFD" />
    </linearGradient>
    <rect width="512" height="512" id="artboard_1" />
    <clipPath id="clip_1">
      <use xlink:href="#artboard_1" clip-rule="evenodd" />
    </clipPath>
  </defs>
  <g id="Artboard" clip-path="url(#clip_1)">
    <use xlink:href="#artboard_1" stroke="none" fill="#FFFFFF" fill-opacity="0" />
    <g id="todo" transform="translate(0 53.538696)">
      <path d="M261.343 155.548L155.548 261.343L6.54469 112.339C-2.18157 103.613 -2.18157 89.4776 6.54469 80.7513L80.7513 6.5447C89.4776 -2.18157 103.613 -2.18157 112.339 6.5447L261.343 155.548L261.343 155.548Z" transform="translate(0 106.52942)" id="Shape" fill="#185ABD" stroke="none" />
      <path d="M80.7513 399.271L6.5447 325.064C-2.18157 316.338 -2.18157 302.202 6.5447 293.476L293.454 6.54469C302.18 -2.18157 316.316 -2.18157 325.042 6.54469L399.249 80.7513C407.975 89.4776 407.975 103.613 399.249 112.339L112.328 399.271C103.613 407.986 89.4664 407.986 80.7513 399.271L80.7513 399.271Z" transform="translate(106.20654 0)" id="Shape" fill="url(#gradient_1)" stroke="none" />
      <g id="#e23e29ff" transform="translate(261.00003 211.45276)">
        <path d="M0 4.24973C22.1466 -1.40436 45.6723 -1.43022 67.8189 4.25404C66.7027 13.0067 62.182 21.3198 55.2351 26.7972C48.4993 32.2401 39.6131 34.9163 30.994 34.1234C22.6939 33.4856 14.7084 29.6027 9.04568 23.509C4.05095 18.2729 0.956713 11.3949 0 4.24973L0 4.24973Z" transform="translate(83.73459 0)" id="Shape" fill="#E23E29" stroke="none" />
        <path d="M6.97282 37.4024C17.8199 22.2415 31.9595 9.52837 47.9607 0C52.5461 5.95577 55.2439 13.4156 55.1275 20.9572C55.2999 30.0159 51.529 39.0529 45.0303 45.3535C39.6865 50.6757 32.5111 54.1061 25.0125 54.9292C16.1823 55.998 6.98575 53.4209 0 47.9047C2.30991 44.3968 4.40865 40.7423 6.97282 37.4024L6.97282 37.4024Z" transform="translate(13.42038 13.441956)" id="Shape" fill="#E23E29" stroke="none" />
        <path d="M0.231193 24.8746C-0.828961 16.0875 1.79985 6.97282 7.23418 0C26.8986 11.64 43.5721 28.249 55.1475 47.9564C49.2607 52.4814 41.9173 55.149 34.4661 55.1189C25.7996 55.3214 17.1289 51.9298 10.824 45.9999C4.93289 40.5139 1.05862 32.8903 0.231193 24.8746L0.231193 24.8746Z" transform="translate(166.79794 13.334106)" id="Shape" fill="#E23E29" stroke="none" />
        <path d="M7.89972 0.365805C11.6016 -0.634003 15.7732 0.447687 18.4408 3.2187C22.5866 7.29982 22.4271 14.7596 18.0487 18.6123C14.0882 22.4348 7.14124 22.3788 3.27129 18.4615C0.370968 15.7422 -0.7021 11.3637 0.461471 7.58425C1.4699 4.10216 4.40038 1.28373 7.89972 0.365805L7.89972 0.365805Z" transform="translate(106.9108 43.28601)" id="Shape" fill="#E23E29" stroke="none" />
        <path d="M8.53079 0.244634C13.616 -0.918938 19.1452 2.18392 20.8517 7.09679C22.429 11.3934 20.9422 16.595 17.2447 19.3186C13.2454 22.4818 6.97937 22.1543 3.34213 18.5687C0.515083 15.9572 -0.639872 11.764 0.347012 8.05781C1.26494 4.16199 4.62637 1.03759 8.53079 0.244634L8.53079 0.244634Z" transform="translate(61.84427 61.821655)" id="Shape" fill="#E23E29" stroke="none" />
        <path d="M7.93853 0.385724C13.0108 -1.09245 18.833 1.81648 20.7119 6.74227C21.8755 9.72877 21.6859 13.2324 20.1043 16.0336C18.4925 18.9425 15.4414 21.0283 12.1317 21.4033C8.96851 21.8385 5.58985 20.7999 3.31443 18.5374C0.819213 16.2103 -0.383146 12.6377 0.108146 9.27196C0.616666 5.09603 3.85312 1.40708 7.93853 0.385724L7.93853 0.385724Z" transform="translate(152.09189 61.710754)" id="Shape" fill="#E23E29" stroke="none" />
        <path d="M4.2325 67.7672C-1.41299 45.6335 -1.40868 22.1337 4.2325 0C13.0196 1.08169 21.3672 5.64548 26.8403 12.6312C31.6971 18.6904 34.425 26.4691 34.2139 34.2478C34.2828 43.802 29.8871 53.2312 22.7074 59.5059C17.5705 64.0438 11.0329 66.9355 4.2325 67.7672L4.2325 67.7672Z" transform="translate(0 83.76044)" id="Shape" fill="#E23E29" stroke="none" />
        <path d="M4.03354 17.7639C9.11015 8.06312 19.1729 1.27131 30.0285 0C34.7 18.5654 35.605 38.1005 32.2867 56.9719C31.7609 60.6135 30.787 64.1645 30.0285 67.7587C23.3445 66.9614 16.9104 64.1473 11.8338 59.7257C6.01161 54.7525 1.94774 47.7409 0.577302 40.2036C-0.82329 32.6231 0.323043 24.5471 4.03354 17.7639L4.03354 17.7639Z" transform="translate(201.47098 83.76477)" id="Shape" fill="#E23E29" stroke="none" />
        <path d="M8.64335 0.220678C13.8708 -0.912725 19.5637 2.43578 21.0074 7.60291C22.3433 11.8263 20.766 16.7865 17.1547 19.3852C12.9399 22.6216 6.33345 22.0399 2.81688 18.0277C0.153598 15.2049 -0.695378 10.8695 0.58886 7.22368C1.77398 3.67261 4.95871 0.897279 8.64335 0.220678L8.64335 0.220678Z" transform="translate(43.27841 106.89313)" id="Shape" fill="#E23E29" stroke="none" />
        <path d="M8.50667 0.206474C11.1182 -0.284812 13.9324 0.0858078 16.2207 1.47778C19.2029 3.18867 21.1939 6.44667 21.431 9.86844C21.7585 13.5057 20.0864 17.2593 17.0999 19.3839C13.036 22.4479 6.74838 22.0558 3.19301 18.3754C0.361657 15.6604 -0.698498 11.3207 0.465082 7.59301C1.50368 3.88681 4.75737 0.98219 8.50667 0.206474L8.50667 0.206474Z" transform="translate(170.97702 106.928894)" id="Shape" fill="#E23E29" stroke="none" />
        <path d="M8.26239 0.288388C12.0031 -0.616612 16.1704 0.646084 18.7173 3.54637C22.1563 7.20516 22.3632 13.3203 19.2732 17.2592C17.1788 20.0561 13.6234 21.698 10.1327 21.4395C6.22829 21.3274 2.53503 18.7934 0.974977 15.2251C-0.378215 12.3421 -0.30064 8.86431 1.06979 6.00711C2.45315 3.14559 5.16384 0.995153 8.26239 0.288388L8.26239 0.288388Z" transform="translate(61.798126 152.02826)" id="Shape" fill="#E23E29" stroke="none" />
        <path d="M8.80188 0.171839C11.6979 -0.345308 14.8309 0.305432 17.1753 2.11542C19.7481 3.99867 21.3599 7.11445 21.459 10.2949C21.6098 13.7296 20.0024 17.2246 17.24 19.2888C15.2748 20.8058 12.7494 21.547 10.2757 21.4263C6.22048 21.3574 2.385 18.6726 0.846493 14.9405C-0.179178 12.5229 -0.278289 9.72602 0.579304 7.24373C1.74718 3.61945 5.03967 0.783782 8.80188 0.171839L8.80188 0.171839Z" transform="translate(152.15964 152.1792)" id="Shape" fill="#E23E29" stroke="none" />
        <path d="M0 7.16091C6.24451 2.40319 14.1051 -0.311812 21.9786 0.0286311C30.602 0.136369 39.0961 3.8081 45.1553 9.93625C50.7447 15.3921 54.2441 22.8864 54.981 30.6521C55.9162 39.3229 53.296 48.2781 47.9306 55.1389C34.2048 46.9163 21.7933 36.4269 11.7435 23.9551C7.34775 18.7104 3.55967 12.996 0 7.16091L0 7.16091Z" transform="translate(13.377319 166.77649)" id="Shape" fill="#E23E29" stroke="none" />
        <path d="M25.2862 1.13266C35.461 -1.60389 46.8166 0.693078 55.0995 7.21339C44.6101 24.9514 30.0913 40.3019 12.8359 51.5886C10.9613 52.7909 9.0737 53.976 7.18181 55.1611C2.50167 49.1451 -0.148693 41.5301 0.00644431 33.8937C-0.0711241 26.6364 2.43271 19.4352 6.74225 13.626C11.306 7.55385 17.9212 3.03316 25.2862 1.13266L25.2862 1.13266Z" transform="translate(166.92368 166.87915)" id="Shape" fill="#E23E29" stroke="none" />
        <path d="M8.40866 0.250156C11.6365 -0.469538 15.1876 0.38375 17.7 2.55143C20.2987 4.70619 21.7122 8.16242 21.445 11.5238C21.2166 15.1955 18.9498 18.6906 15.6357 20.3152C12.3605 22.0089 8.18457 21.8624 5.07308 19.8671C0.815252 17.3805 -1.09818 11.7092 0.63856 7.11521C1.80645 3.67622 4.86622 1.01725 8.40866 0.250156L8.40866 0.250156Z" transform="translate(106.90207 171.05847)" id="Shape" fill="#E23E29" stroke="none" />
        <path d="M10.0369 9.74191C16.3676 3.38104 25.3788 -0.226037 34.3469 0.0109948C41.8153 0.0023673 49.2406 2.66567 55.08 7.31564C62.1002 12.8189 66.7459 21.1708 67.7974 30.0269C58.2216 32.2894 48.4519 33.9227 38.5961 34.1338C25.6158 34.6467 12.5924 33.1513 0 29.9795C0.991191 22.3774 4.46466 15.0426 10.0369 9.74191L10.0369 9.74191Z" transform="translate(83.73898 201.58911)" id="Shape" fill="#E23E29" stroke="none" />
      </g>
    </g>
  </g>
</svg>