<?xml version="1.0" encoding="utf-8"?>
<svg width="32px" height="32px" viewBox="0 0 32 32" version="1.1" xmlns:xlink="http://www.w3.org/1999/xlink" xmlns="http://www.w3.org/2000/svg">
  <desc>Created with Lunacy</desc>
  <g id="user">
    <g id="#e6e6e6ff">
      <path d="M0 16C0 7.16344 7.16344 0 16 0C24.8366 0 32 7.16344 32 16C32 24.8366 24.8366 32 16 32C7.16344 32 0 24.8366 0 16Z" id="Ellipse" fill="#E6E6E6" stroke="none" />
    </g>
    <g id="#404040ff" transform="translate(8.941427 7.9930663)">
      <path d="M7.87857 0.0619306C6.79929 -0.102355 5.66357 0.057645 4.695 0.572645C3.60929 1.13193 2.73857 2.09479 2.29 3.2305C1.78429 4.49122 1.81071 5.95551 2.36429 7.19622C2.77929 8.14122 3.49286 8.94765 4.36857 9.49122C3.15429 9.99479 2.08286 10.8412 1.32071 11.9141C0.462142 13.0948 0.0149999 14.5491 0 16.0048C0.290435 16.0077 0.580553 16.0073 0.870565 16.007C1.01563 16.0069 1.16067 16.0067 1.30572 16.0069C1.29143 14.0505 2.36643 12.1434 4.03072 11.1234C5.27929 10.3391 6.83786 10.0655 8.27643 10.3884C9.65 10.6791 10.8936 11.5062 11.715 12.6412C12.425 13.6105 12.8079 14.8069 12.8114 16.0069C12.9565 16.0067 13.1015 16.0069 13.2466 16.007C13.5366 16.0073 13.8267 16.0077 14.1171 16.0048C14.0964 15.1641 13.9657 14.3205 13.6614 13.5334C12.99 11.7219 11.535 10.2241 9.74786 9.49051C11.1914 8.61194 12.1514 6.98622 12.1836 5.29193C12.2371 3.98122 11.7514 2.66336 10.8707 1.69336C10.0971 0.831217 9.02429 0.240502 7.87857 0.0619306ZM3.92214 2.93479C4.50643 2.09193 5.44357 1.50336 6.45714 1.34407C7.46571 1.17622 8.53857 1.4455 9.35071 2.0655C10.255 2.7305 10.8343 3.8155 10.8829 4.93693C10.9386 5.92479 10.5836 6.92479 9.92429 7.66051C9.22786 8.45551 8.19 8.94479 7.13071 8.95551C6.24429 8.97836 5.35571 8.67194 4.66786 8.11336C3.91071 7.50908 3.39214 6.61051 3.265 5.64836C3.13 4.70408 3.37 3.71336 3.92214 2.93479Z" id="Shape" fill="#404040" fill-rule="evenodd" stroke="none" />
    </g>
  </g>
</svg>