<?xml version="1.0" encoding="UTF-8" ?>
<!DOCTYPE svg PUBLIC "-//W3C//DTD SVG 1.1//EN" "http://www.w3.org/Graphics/SVG/1.1/DTD/svg11.dtd">
<svg width="448pt" height="448pt" viewBox="0 0 448 448" version="1.1" xmlns="http://www.w3.org/2000/svg">
<g id="#e6e6e6ff">
<path fill="#e6e6e6" opacity="1.00" d=" M 0.00 0.00 L 448.00 0.00 L 448.00 448.00 L 0.00 448.00 L 0.00 0.00 M 190.91 119.92 C 175.71 127.75 163.52 141.23 157.24 157.13 C 150.16 174.78 150.53 195.28 158.28 212.65 C 164.09 225.88 174.08 237.17 186.34 244.78 C 169.34 251.83 154.34 263.68 143.67 278.70 C 131.65 295.23 125.39 315.59 125.18 335.97 C 131.28 336.03 137.37 335.99 143.46 336.00 C 143.26 308.61 158.31 281.91 181.61 267.63 C 199.09 256.65 220.91 252.82 241.05 257.34 C 260.28 261.41 277.69 272.99 289.19 288.88 C 299.13 302.45 304.49 319.20 304.54 336.00 C 310.63 335.99 316.72 336.03 322.82 335.97 C 322.53 324.20 320.70 312.39 316.44 301.37 C 307.04 276.01 286.67 255.04 261.65 244.77 C 281.86 232.47 295.30 209.71 295.75 185.99 C 296.50 167.64 289.70 149.19 277.37 135.61 C 266.54 123.54 251.52 115.27 235.48 112.77 C 220.37 110.47 204.47 112.71 190.91 119.92 Z" />
<path fill="#e6e6e6" opacity="1.00" d=" M 215.58 130.72 C 229.70 128.37 244.72 132.14 256.09 140.82 C 268.75 150.13 276.86 165.32 277.54 181.02 C 278.32 194.85 273.35 208.85 264.12 219.15 C 254.37 230.28 239.84 237.13 225.01 237.28 C 212.60 237.60 200.16 233.31 190.53 225.49 C 179.93 217.03 172.67 204.45 170.89 190.98 C 169.00 177.76 172.36 163.89 180.09 152.99 C 188.27 141.19 201.39 132.95 215.58 130.72 Z" />
</g>
<g id="#404040ff">
<path fill="#404040" opacity="1.00" d=" M 190.91 119.92 C 204.47 112.71 220.37 110.47 235.48 112.77 C 251.52 115.27 266.54 123.54 277.37 135.61 C 289.70 149.19 296.50 167.64 295.75 185.99 C 295.30 209.71 281.86 232.47 261.65 244.77 C 286.67 255.04 307.04 276.01 316.44 301.37 C 320.70 312.39 322.53 324.20 322.82 335.97 C 316.72 336.03 310.63 335.99 304.54 336.00 C 304.49 319.20 299.13 302.45 289.19 288.88 C 277.69 272.99 260.28 261.41 241.05 257.34 C 220.91 252.82 199.09 256.65 181.61 267.63 C 158.31 281.91 143.26 308.61 143.46 336.00 C 137.37 335.99 131.28 336.03 125.18 335.97 C 125.39 315.59 131.65 295.23 143.67 278.70 C 154.34 263.68 169.34 251.83 186.34 244.78 C 174.08 237.17 164.09 225.88 158.28 212.65 C 150.53 195.28 150.16 174.78 157.24 157.13 C 163.52 141.23 175.71 127.75 190.91 119.92 M 215.58 130.72 C 201.39 132.95 188.27 141.19 180.09 152.99 C 172.36 163.89 169.00 177.76 170.89 190.98 C 172.67 204.45 179.93 217.03 190.53 225.49 C 200.16 233.31 212.60 237.60 225.01 237.28 C 239.84 237.13 254.37 230.28 264.12 219.15 C 273.35 208.85 278.32 194.85 277.54 181.02 C 276.86 165.32 268.75 150.13 256.09 140.82 C 244.72 132.14 229.70 128.37 215.58 130.72 Z" />
</g>
</svg>
